<?xml version="1.0" encoding="utf-8"?>
<!-- Generator: Adobe Illustrator 19.0.0, SVG Export Plug-In . SVG Version: 6.00 Build 0)  -->
<svg version="1.1" id="Layer_1" xmlns="http://www.w3.org/2000/svg" xmlns:xlink="http://www.w3.org/1999/xlink" x="0px" y="0px"
	 viewBox="0 0 159 39" style="enable-background:new 0 0 159 39;" xml:space="preserve">
<style type="text/css">
	.st0{fill:#323234;}
	.st1{fill:#F99D31;}
</style>
<path id="XMLID_29_" class="st0" d="M0,5.3h6.9c4.8,0,7.4,2.6,7.4,8.2v10.8c0,5.6-2.6,8.2-7.4,8.2H0V5.3z M4.7,28.7h1.6
	c2.5,0,3.4-0.9,3.4-3.8V12.9c0-2.9-0.9-3.8-3.4-3.8H4.7V28.7z"/>
<path id="XMLID_32_" class="st0" d="M26.6,12.2h4.3L25.6,34c-0.9,3.7-2.6,4.9-5.8,4.9H18v-3.5h1c2.1,0,2.8-1.1,2.8-3.3
	c0-0.8-0.2-1.7-0.5-2.7L17,12.2h4.3l2.7,13h0.1L26.6,12.2z"/>
<path id="XMLID_34_" class="st0" d="M33.3,32.5V12.2h4v2c1.8-1.5,2.7-2.4,5.1-2.4c2.2,0,3.5,1.6,3.5,4.3v16.4h-4.2V16.8
	c0-1-0.6-1.5-1.5-1.5c-0.9,0-1.7,0.6-2.7,1.3v15.9H33.3z"/>
<path id="XMLID_36_" class="st0" d="M49.6,18.2c0.2-4.1,2.8-6.3,6.8-6.3c3.9,0,6.2,1.8,6.2,5.5v13c0,0.6,0.2,1.5,0.3,2.2h-4
	c0-0.6-0.2-1.1-0.2-1.6c-1.6,1.3-2.9,2-4.9,2c-2.9,0-4.3-2-4.3-4.6c0-4.5,2.9-6.9,9-9.2v-1.2c0-1.7-0.7-2.6-2.1-2.6
	c-1.9,0-2.3,1.1-2.4,2.9H49.6z M58.4,22.2c-3.8,2.2-4.8,3.6-4.8,5.4c0,1.3,0.7,1.8,2,1.8c1.2,0,2.1-0.9,2.8-1.9V22.2z"/>
<path id="XMLID_39_" class="st0" d="M75.3,32.5V16.8c0-1-0.6-1.5-1.5-1.5c-0.9,0-1.7,0.6-2.7,1.3v15.9h-4.2V12.2h4v2
	c1.8-1.5,2.7-2.4,4.7-2.4c2.1,0,2.8,0.8,3.7,2.4c2-2,3.2-2.4,4.7-2.4c2.6,0,4,1.6,4,4.3v16.4h-4.2V16.8c0-1-0.7-1.5-1.5-1.5
	c-0.9,0-1.7,0.6-2.7,1.3v15.9H75.3z"/>
<g id="XMLID_41_">
	<path id="XMLID_42_" class="st0" d="M151.8,27.2h-1v-0.9h3.1v0.9h-1v5.3h-1.1V27.2z"/>
	<path id="XMLID_44_" class="st0" d="M158.9,26.3v6.2h-0.9v-4.9h0l-1,4.9h-0.5l-1-4.9h0v4.9h-0.9v-6.2h1.4l0.8,3.6h0l0.8-3.6H158.9z
		"/>
</g>
<polygon id="XMLID_112_" class="st0" points="118.9,0 114,0 116.5,6.3 "/>
<path id="XMLID_46_" class="st1" d="M99.7,17.8c-0.3-1.6-1.1-2.5-2.4-2.5c-1.1,0-1.9,0.6-1.9,1.6c0,3.2,7.9,4.5,7.9,10.5
	c0,3.6-2.5,5.5-5.9,5.5c-3.7,0-5.8-2.1-6.5-5.7l3.7-1c0.3,1.7,0.9,3.2,2.8,3.2c1.1,0,1.9-0.6,1.9-1.8c0-3.5-7.9-4.8-7.9-10.4
	c0-3.2,2.5-5.4,5.7-5.4c3.3,0,5.5,2.2,6.2,5.4L99.7,17.8z"/>
<path id="XMLID_48_" class="st1" d="M130.5,15.7H128v-3.5h2.5V9.7c0-3.3,1.7-4.8,4.7-4.8h2.1v3.5h-1.2c-1,0-1.4,0.4-1.4,1.4v2.5h2.4
	v3.5h-2.4v16.8h-4.2V15.7z"/>
<path id="XMLID_50_" class="st1" d="M138.5,15.7v-3.5h2.3V6.7h4.2v5.5h2.8v3.5h-2.8v11.7c0,1.1,0.5,1.7,1.4,1.7h1.4v3.6
	c-0.6,0.2-1.1,0.2-2.1,0.2c-3.2,0-4.9-1.5-4.9-4.6V15.7H138.5z"/>
<g id="XMLID_52_">
	<path id="XMLID_53_" class="st1" d="M114.7,15.7v-4.2c-4.7,0.7-8.4,4.5-9,9.2h4.2C110.4,18.2,112.3,16.3,114.7,15.7z"/>
	<path id="XMLID_54_" class="st1" d="M123,20.6h4.2c-0.7-4.7-4.4-8.5-9.1-9.2v4.2C120.5,16.2,122.4,18.2,123,20.6z"/>
	<path id="XMLID_55_" class="st1" d="M110,24h-4.2c0.8,4.6,4.4,8.2,9,8.9v-4.2C112.4,28.1,110.6,26.3,110,24z"/>
	<path id="XMLID_56_" class="st1" d="M118.1,28.7v4.2c4.6-0.7,8.3-4.3,9.1-8.9h-4.2C122.3,26.3,120.4,28.1,118.1,28.7z"/>
</g>
</svg>
