<?xml version="1.0" encoding="utf-8"?>
<!-- Generator: Adobe Illustrator 26.2.1, SVG Export Plug-In . SVG Version: 6.00 Build 0)  -->
<svg version="1.1" id="Layer_1" xmlns="http://www.w3.org/2000/svg" xmlns:xlink="http://www.w3.org/1999/xlink" x="0px" y="0px"
	 viewBox="0 0 29.4 29.4" style="enable-background:new 0 0 29.4 29.4;" xml:space="preserve">
<style type="text/css">
	.st0{fill:#FEA543;}
</style>
<g>
	<path class="st0" d="M27.2,11.9h-1.9c-0.2-0.8-0.5-1.5-0.8-2.3l1.4-1.4c0.9-0.9,0.9-2.2,0-3.1l-1.7-1.7c-0.9-0.9-2.2-0.9-3.1,0
		l-1.4,1.4c-0.7-0.3-1.5-0.6-2.3-0.8V2.2c0-1.2-1-2.2-2.2-2.2h-1.2c-1.2,0-2.2,1-2.2,2.2v1.9c-0.8,0.2-1.5,0.5-2.3,0.8L8.2,3.5
		C7.4,2.6,6,2.6,5.1,3.5L3.5,5.2C2.6,6,2.6,7.4,3.5,8.3l1.4,1.4c-0.3,0.7-0.6,1.5-0.8,2.3H2.2c-1.2,0-2.2,1-2.2,2.2v1.2
		c0,1.2,1,2.2,2.2,2.2h1.9c0.2,0.8,0.5,1.5,0.8,2.3l-1.4,1.4c-0.9,0.9-0.9,2.2,0,3.1l1.7,1.7c0.9,0.9,2.2,0.8,3.1,0l1.4-1.4
		c0.7,0.3,1.5,0.6,2.3,0.8v1.9c0,1.2,1,2.2,2.2,2.2h1.2c1.2,0,2.2-1,2.2-2.2v-1.9c0.8-0.2,1.5-0.5,2.3-0.8l1.4,1.4
		c0.8,0.8,2.3,0.8,3.1,0l1.7-1.7c0.8-0.9,0.8-2.2,0-3.1l-1.4-1.4c0.3-0.7,0.6-1.5,0.8-2.3h1.9c1.2,0,2.2-1,2.2-2.2v-1.2
		C29.4,12.9,28.4,11.9,27.2,11.9z M27.4,15.3c0,0.1-0.1,0.2-0.2,0.2h-2.7c-0.5,0-0.9,0.3-1,0.8c-0.2,1.1-0.6,2.2-1.1,3.2
		c-0.2,0.4-0.1,0.8,0.2,1.2l1.9,1.9c0.1,0.1,0.1,0.2,0,0.3l-1.7,1.7c-0.1,0.1-0.2,0.1-0.3,0l-1.9-1.9c-0.3-0.3-0.8-0.4-1.2-0.2
		c-1,0.5-2.1,0.9-3.2,1.1c-0.5,0.1-0.8,0.5-0.8,1v2.7c0,0.1-0.1,0.2-0.2,0.2h-1.2c-0.1,0-0.2-0.1-0.2-0.2v-2.7c0-0.5-0.3-0.9-0.8-1
		c-1.1-0.2-2.2-0.6-3.2-1.1c-0.1-0.1-0.3-0.1-0.4-0.1c-0.3,0-0.5,0.1-0.7,0.3l-1.9,1.9c-0.1,0.1-0.2,0.1-0.3,0l-1.7-1.7
		c-0.1-0.1-0.1-0.2,0-0.3l1.9-1.9c0.3-0.3,0.4-0.8,0.2-1.2c-0.5-1-0.9-2.1-1.1-3.2c-0.1-0.5-0.5-0.8-1-0.8H2.2
		c-0.1,0-0.2-0.1-0.2-0.2v-1.2c0-0.1,0.1-0.2,0.2-0.2h2.7c0.5,0,0.9-0.3,1-0.8C6.1,12,6.4,10.9,7,9.9C7.1,9.5,7.1,9,6.8,8.7L4.9,6.8
		c-0.1-0.1-0.1-0.2,0-0.3l1.7-1.7c0.1-0.1,0.2-0.1,0.3,0l1.9,1.9C9,7.1,9.5,7.1,9.9,7c1-0.5,2.1-0.9,3.2-1.1c0.5-0.1,0.8-0.5,0.8-1
		V2.2C13.9,2.1,14,2,14.1,2h1.2c0.1,0,0.2,0.1,0.2,0.2v2.7c0,0.5,0.3,0.9,0.8,1c1.1,0.2,2.2,0.6,3.2,1.1c0.4,0.2,0.8,0.1,1.2-0.2
		l1.9-1.9c0.1-0.1,0.2-0.1,0.3,0l1.7,1.7c0.1,0.1,0.1,0.2,0,0.3l-1.9,1.9c-0.3,0.3-0.4,0.8-0.2,1.2c0.5,1,0.9,2.1,1.1,3.2
		c0.1,0.5,0.5,0.8,1,0.8h2.7c0.1,0,0.2,0.1,0.2,0.2V15.3z"/>
	<path class="st0" d="M14.7,8.3c-3.5,0-6.4,2.9-6.4,6.4c0,3.5,2.9,6.4,6.4,6.4c3.5,0,6.4-2.9,6.4-6.4C21.1,11.2,18.2,8.3,14.7,8.3z
		 M14.7,19.1c-2.4,0-4.4-2-4.4-4.4s2-4.4,4.4-4.4s4.4,2,4.4,4.4S17.1,19.1,14.7,19.1z"/>
</g>
</svg>
