<?xml version="1.0" encoding="utf-8"?>
<!-- Generator: Adobe Illustrator 26.2.1, SVG Export Plug-In . SVG Version: 6.00 Build 0)  -->
<svg version="1.1" id="Layer_1" xmlns="http://www.w3.org/2000/svg" xmlns:xlink="http://www.w3.org/1999/xlink" x="0px" y="0px"
	 viewBox="0 0 28 28.1" style="enable-background:new 0 0 28 28.1;" xml:space="preserve">
<style type="text/css">
	.st0{fill:none;}
	.st1{fill:#fe8e14;}
</style>
<g>
	<rect x="2.1" y="2" class="st0" width="3.9" height="3.5"/>
	<rect x="21.7" y="2" class="st0" width="3.9" height="3.5"/>
	<path class="st1" d="M0.1,1v5.5c0,0.6,0.4,1,1,1H7c0.6,0,1-0.4,1-1V1c0-0.6-0.4-1-1-1H1.1C0.5,0,0.1,0.4,0.1,1z M6,5.5H2.1V2H6V5.5
		z"/>
	<path class="st1" d="M19.7,1v5.5c0,0.6,0.4,1,1,1h5.9c0.6,0,1-0.4,1-1V1c0-0.6-0.4-1-1-1h-5.9C20.2,0,19.7,0.4,19.7,1z M25.6,5.5
		h-3.9V2h3.9V5.5z"/>
	<path class="st1" d="M9.9,1v4.6c0,0.6,0.4,1,1,1s1-0.4,1-1V2h4.9c0.6,0,1-0.4,1-1s-0.4-1-1-1h-5.9C10.3,0,9.9,0.4,9.9,1z"/>
	<path class="st1" d="M15.1,12.2c0.6,0,1-0.4,1-1V4.7c0-0.6-0.4-1-1-1c-0.6,0-1,0.4-1,1v6.5C14.1,11.7,14.6,12.2,15.1,12.2z"/>
	<path class="st1" d="M8.2,11.2c0-0.6-0.4-1-1-1H1.1c-0.6,0-1,0.4-1,1s0.4,1,1,1h6.2C7.8,12.2,8.2,11.7,8.2,11.2z"/>
	<path class="st1" d="M26.6,10.2h-6.2c-0.6,0-1,0.4-1,1s0.4,1,1,1h6.2c0.6,0,1-0.4,1-1S27.2,10.2,26.6,10.2z"/>
	<path class="st1" d="M6.4,15.5c0-0.6-0.4-1-1-1s-1,0.4-1,1v6.5c0,0.6,0.4,1,1,1s1-0.4,1-1V15.5z"/>
	<path class="st1" d="M1.1,27.6c0.6,0,1-0.4,1-1V15.5c0-0.6-0.4-1-1-1s-1,0.4-1,1v11.1C0.1,27.1,0.5,27.6,1.1,27.6z"/>
	<path class="st1" d="M10.3,15.5c0-0.6-0.4-1-1-1s-1,0.4-1,1v6.5c0,0.6,0.4,1,1,1s1-0.4,1-1V15.5z"/>
	<path class="st1" d="M13.3,14.5c-0.6,0-1,0.4-1,1v11.1c0,0.6,0.4,1,1,1s1-0.4,1-1V15.5C14.3,14.9,13.8,14.5,13.3,14.5z"/>
	<path class="st1" d="M16.3,15.5v6.5c0,0.6,0.4,1,1,1s1-0.4,1-1v-6.5c0-0.6-0.4-1-1-1S16.3,14.9,16.3,15.5z"/>
	<path class="st1" d="M22.2,15.5c0-0.6-0.4-1-1-1s-1,0.4-1,1v6.5c0,0.6,0.4,1,1,1s1-0.4,1-1V15.5z"/>
	<path class="st1" d="M5.4,24.6c-0.6,0-1,0.4-1,1v0.9c0,0.6,0.4,1,1,1s1-0.4,1-1v-0.9C6.4,25.1,5.9,24.6,5.4,24.6z"/>
	<path class="st1" d="M9.3,24.6c-0.6,0-1,0.4-1,1v0.9c0,0.6,0.4,1,1,1s1-0.4,1-1v-0.9C10.3,25.1,9.9,24.6,9.3,24.6z"/>
	<path class="st1" d="M16.3,26.6c0,0.6,0.4,1,1,1s1-0.4,1-1v-0.9c0-0.6-0.4-1-1-1s-1,0.4-1,1V26.6z"/>
	<path class="st1" d="M21.2,24.6c-0.6,0-1,0.4-1,1v0.9c0,0.6,0.4,1,1,1s1-0.4,1-1v-0.9C22.2,25.1,21.8,24.6,21.2,24.6z"/>
	<path class="st1" d="M25.6,15.5v11.1c0,0.6,0.4,1,1,1s1-0.4,1-1V15.5c0-0.6-0.4-1-1-1S25.6,14.9,25.6,15.5z"/>
</g>
</svg>
