<svg xmlns="http://www.w3.org/2000/svg" width="14" height="14" viewBox="0 0 14 14">
  <g id="info" transform="translate(1 1)">
    <g id="Group_16" data-name="Group 16" transform="translate(-1 1)">
      <g id="Group_17" data-name="Group 17" transform="translate(0 -1)">
        <path id="Path_69" data-name="Path 69" d="M7,14A7,7,0,1,0,0,7a7,7,0,0,0,7,7" transform="translate(0 -1)" fill="#999"/>
        <path id="Path_70" data-name="Path 70" d="M11.864,13.1h-.955a.637.637,0,0,1-.636-.636V8.328a.318.318,0,0,0-.318-.318H9" transform="translate(-3.273 -2.913)" fill="none" stroke="#fff" stroke-linecap="round" stroke-linejoin="round" stroke-width="2"/>
        <path id="Path_71" data-name="Path 71" d="M10.654,5.5a.159.159,0,1,0,.159.159.159.159,0,0,0-.159-.159" transform="translate(-3.816 -4)" fill="none" stroke="#fff" stroke-linecap="round" stroke-linejoin="round" stroke-width="2"/>
      </g>
    </g>
  </g>
</svg>
